# xmcd
#
# Track frame offsets:
#	150
#	18324
#	34750
#	50496
#	53246
#	69867
#	86268
#	88186
#	98916
#	115891
#	117691
#	130240
#	148101
#	152601
#	165385
#	168618
#	181171
#	184002
#
# Disc length: 2701 seconds
#
# Revision: 1
# Processed by: cddbd v1.5.2PL0 Copyright (c) Steve Scherf et al.
# Submitted via: audiograbber 1.83.01
#
DISCID=ee0a8b12
DTITLE=AZULÃO - SOLTE O AZULÃO
DYEAR=1900
DGENRE=
TTITLE0=SOLTE O AZULÃO
TTITLE1=ESTÚPIDO JEITO DE AMAR
TTITLE2=ARTE VERDADEIRA
TTITLE3=COMENTÁRIO IVAN BULHÕES
TTITLE4=CABECILÊ
TTITLE5=TEU OLHAR ME DIZ
TTITLE6=COMENTÁRIO TAVARES DA GAITA
TTITLE7=PERDIDO NO FORRÓ
TTITLE8=FOGUEIRA QUENTE
TTITLE9=COMENTÁRIO VALDIR SANTOS
TTITLE10=QUER CHAMEGO TOMÉ
TTITLE11=CASINHA DE PALHA
TTITLE12=COMENTÁRIO JUAREZ SANTIAGO
TTITLE13=MULHER QUERENDO É BOM
TTITLE14=COMENTÁRIO LÍDIO CAVALCANTE
TTITLE15=ME ORGULHO DE SER CANTOR
TTITLE16=COMENTÁRIO JOÃO DO PIFE
TTITLE17=BALANÇA BUEIRO
EXTD=
EXTT0=
EXTT1=
EXTT2=
EXTT3=
EXTT4=
EXTT5=
EXTT6=
EXTT7=
EXTT8=
EXTT9=
EXTT10=
EXTT11=
EXTT12=
EXTT13=
EXTT14=
EXTT15=
EXTT16=
EXTT17=
PLAYORDER=
